<svg width="321" height="407" viewBox="0 0 321 407" fill="none" xmlns="http://www.w3.org/2000/svg">
<path d="M47.2 28.6C47.2 8.93867 36.6339 0.5 23.6 0.5C10.5661 0.5 0 8.93867 0 28.6V377.4C0 397.061 10.5661 406.5 23.6 406.5C36.6339 406.5 47.2 397.061 47.2 377.4V28.6Z" fill="black"/>
<path d="M183.2 28.6C183.2 8.93867 172.634 0.5 159.6 0.5C146.566 0.5 136 8.93867 136 28.6V377.4C136 397.061 146.566 406.5 159.6 406.5C172.634 406.5 183.2 397.061 183.2 377.4V28.6Z" fill="black"/>
<path d="M320.2 28.6C320.2 8.93867 309.634 0.5 296.6 0.5C283.566 0.5 273 8.93867 273 28.6V377.4C273 397.061 283.566 406.5 296.6 406.5C309.634 406.5 320.2 397.061 320.2 377.4V28.6Z" fill="black"/>
<path d="M221.752 172H98.248C80.9902 172 67 186.103 67 203.5C67 220.897 80.9902 235 98.248 235H221.752C239.01 235 253 220.897 253 203.5C253 186.103 239.01 172 221.752 172Z" fill="#FF7A00"/>
</svg>